<?xml version="1.0" encoding="UTF-8"?>
<!DOCTYPE svg PUBLIC "-//W3C//DTD SVG 1.1//EN" "http://www.w3.org/Graphics/SVG/1.1/DTD/svg11.dtd">
<!-- Creator: CorelDRAW X7 -->
<svg xmlns="http://www.w3.org/2000/svg" xml:space="preserve" width="4.29167in" height="3.81126in" version="1.1" style="shape-rendering:geometricPrecision; text-rendering:geometricPrecision; image-rendering:optimizeQuality; fill-rule:evenodd; clip-rule:evenodd"
viewBox="0 0 4292 3811"
 xmlns:xlink="http://www.w3.org/1999/xlink">
 <defs>
  <style type="text/css">
   <![CDATA[
    .fil19 {fill:#373435}
    .fil0 {fill:#D5D6D8}
    .fil12 {fill:url(#id2)}
    .fil14 {fill:url(#id3)}
    .fil13 {fill:url(#id4)}
    .fil3 {fill:url(#id5)}
    .fil4 {fill:url(#id6)}
    .fil8 {fill:url(#id7)}
    .fil15 {fill:url(#id8)}
    .fil9 {fill:url(#id9)}
    .fil6 {fill:url(#id10)}
    .fil10 {fill:url(#id11)}
    .fil7 {fill:url(#id12)}
    .fil18 {fill:url(#id13)}
    .fil17 {fill:url(#id14)}
    .fil1 {fill:url(#id15)}
    .fil5 {fill:url(#id16)}
    .fil16 {fill:url(#id17)}
    .fil11 {fill:url(#id18)}
    .fil20 {fill:url(#id19)}
    .fil2 {fill:url(#id20)}
   ]]>
  </style>
    <mask id="id0">
  <radialGradient id="id1" gradientUnits="userSpaceOnUse" cx="-0" cy="3658.49" r="0" fx="-0" fy="3658.49">
   <stop offset="0" style="stop-opacity:1; stop-color:white"/>
   <stop offset="1" style="stop-opacity:0; stop-color:white"/>
  </radialGradient>
     <rect style="fill:url(#id1)" x="-3" y="3655" width="4299" height="160"/>
    </mask>
  <linearGradient id="id2" gradientUnits="userSpaceOnUse" x1="2358.63" y1="216.035" x2="2358.63" y2="2184.31">
   <stop offset="0" style="stop-opacity:1; stop-color:#A5A5A3"/>
   <stop offset="0.490196" style="stop-opacity:1; stop-color:#FAFAFA"/>
   <stop offset="0.670588" style="stop-opacity:1; stop-color:#F9F9F9"/>
   <stop offset="1" style="stop-opacity:1; stop-color:#CACACA"/>
  </linearGradient>
  <linearGradient id="id3" gradientUnits="userSpaceOnUse" x1="1489.1" y1="2558.95" x2="2108.62" y2="2558.95">
   <stop offset="0" style="stop-opacity:1; stop-color:#E6F1F7"/>
   <stop offset="1" style="stop-opacity:1; stop-color:#908A98"/>
  </linearGradient>
  <linearGradient id="id4" gradientUnits="userSpaceOnUse" x1="460.059" y1="2508.79" x2="768.378" y2="1247.65">
   <stop offset="0" style="stop-opacity:1; stop-color:#F9FBFA"/>
   <stop offset="1" style="stop-opacity:1; stop-color:#E0E2DF"/>
  </linearGradient>
  <linearGradient id="id5" gradientUnits="userSpaceOnUse" x1="905.394" y1="2884" x2="3194.88" y2="815.051">
   <stop offset="0" style="stop-opacity:1; stop-color:#00357B"/>
   <stop offset="0.270588" style="stop-opacity:1; stop-color:#049ACF"/>
   <stop offset="0.721569" style="stop-opacity:1; stop-color:#031857"/>
   <stop offset="1" style="stop-opacity:1; stop-color:#0051A5"/>
  </linearGradient>
  <linearGradient id="id6" gradientUnits="userSpaceOnUse" x1="1202.87" y1="2946.26" x2="2897.41" y2="785.713">
   <stop offset="0" style="stop-opacity:1; stop-color:#00357B"/>
   <stop offset="0.368627" style="stop-opacity:1; stop-color:#003575"/>
   <stop offset="0.611765" style="stop-opacity:1; stop-color:#011863"/>
   <stop offset="1" style="stop-opacity:1; stop-color:#4ECEEB"/>
  </linearGradient>
  <linearGradient id="id7" gradientUnits="userSpaceOnUse" x1="1590.29" y1="694.291" x2="1983.28" y2="368.189">
   <stop offset="0" style="stop-opacity:1; stop-color:#C2C0C0"/>
   <stop offset="0.290196" style="stop-opacity:1; stop-color:#D9D8D8"/>
   <stop offset="1" style="stop-opacity:1; stop-color:#F1F1F1"/>
  </linearGradient>
  <linearGradient id="id8" gradientUnits="userSpaceOnUse" x1="2588.79" y1="1619.16" x2="3395.2" y2="823.882">
   <stop offset="0" style="stop-opacity:1; stop-color:#D1D1D1"/>
   <stop offset="0.54902" style="stop-opacity:1; stop-color:#F8F8F8"/>
   <stop offset="1" style="stop-opacity:1; stop-color:#F3F2F7"/>
  </linearGradient>
  <linearGradient id="id9" gradientUnits="userSpaceOnUse" x1="827.165" y1="998.957" x2="1901.68" y2="-51.2992">
   <stop offset="0" style="stop-opacity:1; stop-color:#E1E3E0"/>
   <stop offset="1" style="stop-opacity:1; stop-color:white"/>
  </linearGradient>
  <linearGradient id="id10" gradientUnits="userSpaceOnUse" x1="2038.32" y1="3071.29" x2="2955.2" y2="2215.21">
   <stop offset="0" style="stop-opacity:1; stop-color:#06BAF9"/>
   <stop offset="1" style="stop-opacity:1; stop-color:#011762"/>
  </linearGradient>
  <linearGradient id="id11" gradientUnits="userSpaceOnUse" x1="866.591" y1="1595.26" x2="1864.12" y2="651.134">
   <stop offset="0" style="stop-opacity:1; stop-color:#E9EBE9"/>
   <stop offset="1" style="stop-opacity:1; stop-color:#998F8D"/>
  </linearGradient>
  <linearGradient id="id12" gradientUnits="userSpaceOnUse" x1="1188.98" y1="910.63" x2="1544.28" y2="630.461">
   <stop offset="0" style="stop-opacity:1; stop-color:#F98200"/>
   <stop offset="1" style="stop-opacity:1; stop-color:#C62F02"/>
  </linearGradient>
  <linearGradient id="id13" gradientUnits="userSpaceOnUse" x1="1430.67" y1="1571.01" x2="872.508" y2="2813.75">
   <stop offset="0" style="stop-opacity:1; stop-color:#BBB6B4"/>
   <stop offset="1" style="stop-opacity:1; stop-color:#F9FBFA"/>
  </linearGradient>
  <linearGradient id="id14" gradientUnits="userSpaceOnUse" x1="1584.3" y1="2393.98" x2="3260.91" y2="1281.42">
   <stop offset="0" style="stop-opacity:1; stop-color:#848E98"/>
   <stop offset="1" style="stop-opacity:1; stop-color:#F2F8F6"/>
  </linearGradient>
  <linearGradient id="id15" gradientUnits="userSpaceOnUse" x1="1056.44" y1="2564.27" x2="636.425" y2="1533.26">
   <stop offset="0" style="stop-opacity:1; stop-color:#DEDFE3"/>
   <stop offset="0.341176" style="stop-opacity:1; stop-color:#ECECEA"/>
   <stop offset="0.658824" style="stop-opacity:1; stop-color:#D6D5D3"/>
   <stop offset="0.870588" style="stop-opacity:1; stop-color:#939290"/>
   <stop offset="1" style="stop-opacity:1; stop-color:#575350"/>
  </linearGradient>
  <linearGradient id="id16" gradientUnits="userSpaceOnUse" x1="2081.34" y1="2861.75" x2="2736.93" y2="2580.8">
   <stop offset="0" style="stop-opacity:1; stop-color:#08B6F5"/>
   <stop offset="1" style="stop-opacity:1; stop-color:#01327E"/>
  </linearGradient>
  <linearGradient id="id17" gradientUnits="userSpaceOnUse" x1="2150.93" y1="1949.63" x2="3264.52" y2="855.012">
   <stop offset="0" style="stop-opacity:1; stop-color:#4D5965"/>
   <stop offset="1" style="stop-opacity:1; stop-color:#626E86"/>
  </linearGradient>
  <linearGradient id="id18" gradientUnits="userSpaceOnUse" x1="927.874" y1="991.106" x2="1188.81" y2="608.634">
   <stop offset="0" style="stop-opacity:1; stop-color:#FCA639"/>
   <stop offset="0.568627" style="stop-opacity:1; stop-color:#EC8426"/>
   <stop offset="1" style="stop-opacity:1; stop-color:#DB6213"/>
  </linearGradient>
  <radialGradient id="id19" gradientUnits="userSpaceOnUse" gradientTransform="matrix(0.459144 -0.0274093 0.0274052 1.0622 1011 -51)" cx="1955.7" cy="1689.22" r="1013.37" fx="1955.7" fy="1689.22">
   <stop offset="0" style="stop-opacity:1; stop-color:#F98200"/>
   <stop offset="1" style="stop-opacity:1; stop-color:#7D1B02"/>
  </radialGradient>
  <radialGradient id="id20" gradientUnits="userSpaceOnUse" gradientTransform="matrix(0.65616 0.0198847 -0.0358371 1.3432 570 -710)" cx="1452.14" cy="1984.35" r="436.579" fx="1452.14" fy="1984.35">
   <stop offset="0" style="stop-opacity:1; stop-color:#D5D3D4"/>
   <stop offset="0.639216" style="stop-opacity:1; stop-color:#8C8989"/>
   <stop offset="1" style="stop-opacity:1; stop-color:#433F3E"/>
  </radialGradient>
 </defs>
 <g id="Layer_x0020_1">
  <metadata id="CorelCorpID_0Corel-Layer"/>
  <g id="_1606870131488">
   <rect class="fil0" x="1000" y="1047" width="605" height="436"/>
   <polygon class="fil1" points="1103,2669 1103,1242 590,1533 590,2855 "/>
   <polygon class="fil2" points="1103,1300 1103,2669 1540,2540 1540,1300 "/>
   <polygon class="fil3" points="1222,2517 1493,2369 2727,825 3286,477 3113,1140 1610,2796 815,3222 815,2740 "/>
   <path class="fil4" d="M2482 1898l-474 441 -392 322c-99,69 -139,124 -292,218 -152,95 -402,245 -509,310l0 66 710 -388 319 324 1442 -836 0 -1878c-2,2 -123,260 -211,413 -85,150 -194,329 -348,563l-245 445z"/>
   <path class="fil5" d="M1922 2685c-170,67 -283,124 -362,172 -10,6 -19,11 -27,17l311 317 1442 -836 0 -103c-72,2 -152,18 -227,35 -198,48 -358,113 -550,184 -193,71 -418,147 -587,214z"/>
   <path class="fil6" d="M1708 3052l136 139 1442 -836 0 -259c-26,-2 -500,269 -538,295 -163,109 -337,229 -490,330 -154,102 -286,185 -412,256 -48,27 -95,53 -138,75z"/>
   <polygon class="fil7" points="2095,676 638,1508 638,945 2095,34 "/>
   <polygon class="fil8" points="1478,1029 2095,676 2095,34 1479,414 "/>
   <polygon class="fil9" points="2095,34 634,948 638,901 2095,0 "/>
   <polygon class="fil10" points="2095,724 636,1571 636,1509 2095,676 "/>
   <path class="fil11" d="M638 1180c62,-43 126,-87 222,-155 100,-72 236,-170 348,-257 112,-87 199,-163 243,-201l27 -25 0 -123 -840 526 0 235z"/>
   <polygon class="fil12" points="2095,2400 2709,2034 2709,441 2095,0 2095,676 2095,722 2008,2133 "/>
   <polygon class="fil13" points="638,2812 590,2855 590,931 638,901 "/>
   <polygon class="fil14" points="2085,2354 2109,2407 1489,2764 1489,2703 "/>
   <polygon class="fil15" points="2709,806 3330,397 3312,378 2654,783 2654,2065 2709,2034 "/>
   <polygon class="fil16" points="3300,468 3330,397 2690,795 2690,2015 2085,2354 2109,2407 2727,2042 2727,825 "/>
   <polygon class="fil17" points="3320,433 3286,477 3286,2355 1844,3191 1525,2867 1525,2909 1844,3243 3320,2392 "/>
   <polygon class="fil18" points="1452,1097 1493,1073 1493,2369 815,2740 815,3255 1525,2867 1525,2909 778,3312 778,2714 1452,2340 "/>
   <path class="fil19" style="mask:url(#id0)" d="M2146 3658c1185,0 2146,35 2146,77 0,42 -961,76 -2146,76 -1185,0 -2146,-34 -2146,-76 0,-42 961,-77 2146,-77z"/>
   <polygon class="fil20" points="1489,2703 1493,1025 2095,676 2095,2353 "/>
  </g>
 </g>
</svg>
